<svg width="832" height="263" viewBox="0 0 832 263" fill="none" xmlns="http://www.w3.org/2000/svg">
<path d="M302.986 115.725C339.79 115.725 358.206 106.204 358.206 86.7647V53.7408C358.206 34.2732 339.79 24.7526 302.986 24.7526H258.765C221.961 24.7526 203.545 34.2732 203.545 53.7408V86.7647C203.545 106.204 221.933 115.725 258.765 115.725H302.986ZM302.986 98.8147H258.765C238.189 98.8147 228.413 95.2906 228.413 88.1004V52.3767C228.413 45.1864 238.189 41.6624 258.765 41.6624H302.986C323.562 41.6624 333.339 45.1864 333.339 52.3767V88.1004C333.31 95.2906 323.562 98.8147 302.986 98.8147Z" fill="white"/>
<path d="M776.546 115.725C813.349 115.725 831.765 106.204 831.765 86.7647V53.7408C831.765 34.2732 813.349 24.7526 776.546 24.7526H732.324C695.521 24.7526 677.105 34.2732 677.105 53.7408V86.7647C677.105 106.204 695.492 115.725 732.324 115.725H776.546ZM776.546 98.8147H732.324C711.749 98.8147 701.972 95.2906 701.972 88.1004V52.4051C701.972 45.2149 711.749 41.6908 732.324 41.6908H776.546C797.122 41.6908 806.898 45.2149 806.898 52.4051V88.1004C806.898 95.2906 797.15 98.8147 776.546 98.8147Z" fill="white"/>
<path d="M178.052 86.3385V63.489C178.052 58.5439 175.011 56.2987 168.873 56.2987C164.752 56.2987 114.96 56.2987 114.96 56.2987C110.1 56.2987 106.122 60.4765 106.122 65.5636C106.122 70.6508 110.1 74.8285 114.96 74.8285H151.821V87.1059C151.821 90.8004 147.018 94.3529 139.003 96.5128C132.637 98.218 127.294 98.3886 121.667 98.3886H62.3835C38.7382 98.3886 26.9155 94.4666 26.9155 86.6227V28.5894C26.9155 20.7739 41.0402 17.1362 69.2611 17.1362C77.3607 17.1362 85.9435 17.1362 85.9435 17.1362C92.3096 17.1362 95.521 14.2658 95.521 8.52498C95.521 2.84101 92.3096 -0.000976562 85.9435 -0.000976562H62.2982C48.0315 -0.000976562 34.8731 1.56212 23.1641 5.59774C9.83518 10.1733 0.712402 18.2446 0.712402 28.6462V86.7364C0.712402 97.5644 8.07315 105.408 22.7094 110.325C33.3668 113.934 46.4684 115.725 62.0993 115.725H121.667C136.19 115.725 148.524 113.707 158.613 109.728C171.573 104.641 178.052 96.8254 178.052 86.3385Z" fill="white"/>
<path d="M540.917 4.88726C530.487 1.76107 517.868 0.0274658 503.061 0.0274658H391.627C387.506 0.0274658 384.153 3.381 384.153 7.50188V108.165C384.153 113.224 387.307 115.753 393.361 115.753H401.148C407.201 115.753 410.356 113.224 410.356 108.165V74.317H503.061C518.834 74.317 530.97 72.5833 542.139 68.8887C556.462 63.6311 563.738 55.2472 563.738 43.794V25.719C563.766 16.5394 556.235 9.54811 540.917 4.88726ZM537.535 45.1013C537.535 54.4231 525.883 57.1514 503.061 57.1514H410.356V17.1646H503.061C525.883 17.1646 537.535 19.8645 537.535 29.2146V45.1013Z" fill="white"/>
<path d="M650.532 24.7528C627.654 24.7528 617.991 24.3264 604.435 29.8967C591.703 35.126 586.275 44.3056 586.275 52.7747V108.534C586.275 113.366 589.287 115.753 595.057 115.753H602.474C608.243 115.753 611.256 113.366 611.256 108.534V52.7463C611.256 44.9593 620.919 41.6626 640.045 41.6626C640.045 41.6626 649.765 41.6626 650.731 41.6626C656.984 41.6626 659.939 38.8206 659.939 33.1935C659.911 27.6232 656.785 24.7528 650.532 24.7528Z" fill="white"/>
<path d="M181.008 144.23H0.683838V262.286H181.008V144.23Z" fill="white"/>
<path d="M397.908 144.23H217.584V262.286H397.908V144.23Z" fill="white"/>
<path d="M614.836 144.23H434.512V262.286H614.836V144.23Z" fill="white"/>
<path d="M831.765 144.23H651.441V262.286H831.765V144.23Z" fill="white"/>
</svg>
