<svg width="832" height="263" viewBox="0 0 832 263" fill="none" xmlns="http://www.w3.org/2000/svg">
<path d="M302.986 115.727C339.79 115.727 358.206 106.206 358.206 86.7668V53.7429C358.206 34.2753 339.79 24.7546 302.986 24.7546H258.765C221.961 24.7546 203.545 34.2753 203.545 53.7429V86.7668C203.545 106.206 221.933 115.727 258.765 115.727H302.986ZM302.986 98.8168H258.765C238.189 98.8168 228.413 95.2927 228.413 88.1025V52.3787C228.413 45.1885 238.189 41.6644 258.765 41.6644H302.986C323.562 41.6644 333.339 45.1885 333.339 52.3787V88.1025C333.31 95.2927 323.562 98.8168 302.986 98.8168Z" fill="black"/>
<path d="M776.546 115.727C813.349 115.727 831.765 106.206 831.765 86.7668V53.7429C831.765 34.2753 813.349 24.7546 776.546 24.7546H732.324C695.521 24.7546 677.105 34.2753 677.105 53.7429V86.7668C677.105 106.206 695.492 115.727 732.324 115.727H776.546ZM776.546 98.8168H732.324C711.749 98.8168 701.972 95.2927 701.972 88.1025V52.4072C701.972 45.2169 711.749 41.6929 732.324 41.6929H776.546C797.122 41.6929 806.898 45.2169 806.898 52.4072V88.1025C806.898 95.2927 797.15 98.8168 776.546 98.8168Z" fill="black"/>
<path d="M178.052 86.3405V63.4909C178.052 58.5459 175.011 56.3007 168.873 56.3007C164.752 56.3007 114.96 56.3007 114.96 56.3007C110.1 56.3007 106.122 60.4784 106.122 65.5656C106.122 70.6527 110.1 74.8304 114.96 74.8304H151.821V87.1078C151.821 90.8024 147.018 94.3549 139.003 96.5148C132.637 98.22 127.294 98.3905 121.667 98.3905H62.3835C38.7382 98.3905 26.9155 94.4686 26.9155 86.6247V28.5913C26.9155 20.7759 41.0402 17.1381 69.2611 17.1381C77.3607 17.1381 85.9435 17.1381 85.9435 17.1381C92.3096 17.1381 95.521 14.2677 95.521 8.52693C95.521 2.84296 92.3096 0.000976562 85.9435 0.000976562H62.2982C48.0315 0.000976562 34.8731 1.56407 23.1641 5.59969C9.83518 10.1753 0.712402 18.2465 0.712402 28.6482V86.7383C0.712402 97.5663 8.07315 105.41 22.7094 110.327C33.3668 113.936 46.4684 115.727 62.0993 115.727H121.667C136.19 115.727 148.524 113.709 158.613 109.73C171.573 104.643 178.052 96.8274 178.052 86.3405Z" fill="black"/>
<path d="M540.917 4.88909C530.487 1.76291 517.868 0.0292969 503.061 0.0292969H391.627C387.506 0.0292969 384.153 3.38283 384.153 7.50371V108.167C384.153 113.226 387.307 115.755 393.361 115.755H401.148C407.201 115.755 410.356 113.226 410.356 108.167V74.3188H503.061C518.834 74.3188 530.97 72.5852 542.139 68.8906C556.462 63.6329 563.738 55.249 563.738 43.7958V25.7208C563.766 16.5412 556.235 9.54994 540.917 4.88909ZM537.535 45.1032C537.535 54.4249 525.883 57.1532 503.061 57.1532H410.356V17.1665H503.061C525.883 17.1665 537.535 19.8663 537.535 29.2165V45.1032Z" fill="black"/>
<path d="M650.532 24.7548C627.654 24.7548 617.991 24.3285 604.435 29.8988C591.703 35.1281 586.275 44.3077 586.275 52.7768V108.537C586.275 113.368 589.287 115.755 595.057 115.755H602.474C608.243 115.755 611.256 113.368 611.256 108.537V52.7484C611.256 44.9613 620.919 41.6646 640.045 41.6646C640.045 41.6646 649.765 41.6646 650.731 41.6646C656.984 41.6646 659.939 38.8227 659.939 33.1955C659.911 27.6252 656.785 24.7548 650.532 24.7548Z" fill="black"/>
<path d="M181.008 144.231H0.683838V262.288H181.008V144.231Z" fill="black"/>
<path d="M397.908 144.231H217.584V262.288H397.908V144.231Z" fill="black"/>
<path d="M614.836 144.231H434.512V262.288H614.836V144.231Z" fill="black"/>
<path d="M831.765 144.231H651.441V262.288H831.765V144.231Z" fill="black"/>
</svg>
