<svg id="Layer_1" data-name="Layer 1" xmlns="http://www.w3.org/2000/svg" viewBox="0 0 1080 256.19"><defs><style>.cls-1{fill:#231f20;}</style></defs><path class="cls-1" d="M101.41,143.91A59.71,59.71,0,0,1,99,161.43,37,37,0,0,1,91.75,175a32.7,32.7,0,0,1-12.19,8.76,44.18,44.18,0,0,1-17.28,3.11,81.47,81.47,0,0,1-8.88-.47,74.17,74.17,0,0,1-9.11-1.58l1.42-15.54a5.06,5.06,0,0,1,1.66-3.32,5.88,5.88,0,0,1,4-1.26,15.89,15.89,0,0,1,3.31.44,22.42,22.42,0,0,0,4.74.43,19.42,19.42,0,0,0,6.74-1.06A10.56,10.56,0,0,0,71,160.92a17.16,17.16,0,0,0,2.84-6.51,44.4,44.4,0,0,0,.94-9.94V70.62h26.67Z"/><path class="cls-1" d="M186.3,164.51a24.62,24.62,0,0,0,9.59-1.78,19.41,19.41,0,0,0,7.14-5.09,22.61,22.61,0,0,0,4.46-8.09A35.42,35.42,0,0,0,209,138.71V70.62h26.66v68.09a53.11,53.11,0,0,1-3.43,19.4,43.49,43.49,0,0,1-9.82,15.23,44.23,44.23,0,0,1-15.54,9.94,61.75,61.75,0,0,1-41.27,0,44.23,44.23,0,0,1-15.54-9.94,43,43,0,0,1-9.78-15.23,53.53,53.53,0,0,1-3.4-19.4V70.62h26.67v68a35.23,35.23,0,0,0,1.54,10.85,22.7,22.7,0,0,0,4.46,8.12,19,19,0,0,0,7.14,5.13A24.57,24.57,0,0,0,186.3,164.51Z"/><path class="cls-1" d="M372.66,70.62v115H358.77a12,12,0,0,1-5.16-1,12.54,12.54,0,0,1-4.15-3.43l-54.2-68.56c.21,2,.36,4,.43,6s.12,3.72.12,5.4v61.62H272.3V70.62h14.05a23.73,23.73,0,0,1,2.91.15,7.57,7.57,0,0,1,2.13.6,6.91,6.91,0,0,1,1.82,1.22,21.92,21.92,0,0,1,2,2.13l54.68,69c-.27-2.21-.45-4.36-.55-6.43s-.16-4-.16-5.88V70.62Z"/><path class="cls-1" d="M437.51,91.13V118h36.14v19.72H437.51v27.38h47.18v20.51h-74V70.62h74V91.13Z"/><path class="cls-1" d="M580.4,94a10,10,0,0,1-2.49,2.84,5.58,5.58,0,0,1-3.35,1,8.17,8.17,0,0,1-3.91-1.15l-4.73-2.56a38.76,38.76,0,0,0-6-2.56,23.93,23.93,0,0,0-7.73-1.15q-7.5,0-11.16,3.2a10.86,10.86,0,0,0-3.67,8.64,8,8,0,0,0,2.21,5.76,18.94,18.94,0,0,0,5.8,3.94,62.31,62.31,0,0,0,8.2,3q4.62,1.38,9.43,3.08a83.41,83.41,0,0,1,9.43,4,31.52,31.52,0,0,1,8.2,5.84,26.94,26.94,0,0,1,5.8,8.64,30.58,30.58,0,0,1,2.21,12.27,40,40,0,0,1-2.76,14.91,34.9,34.9,0,0,1-8,12.11,37.21,37.21,0,0,1-12.94,8.12,48.19,48.19,0,0,1-17.47,3,55.74,55.74,0,0,1-10.93-1.1,65.29,65.29,0,0,1-10.77-3.12,62.41,62.41,0,0,1-9.78-4.77,41.2,41.2,0,0,1-8-6.16l7.89-12.46a8,8,0,0,1,2.48-2.25,6.57,6.57,0,0,1,3.36-.91,9,9,0,0,1,4.77,1.5c1.6,1,3.42,2.11,5.44,3.32a44.22,44.22,0,0,0,7,3.31,26.15,26.15,0,0,0,9.31,1.5c4.83,0,8.6-1.07,11.28-3.2s4-5.51,4-10.13a9.53,9.53,0,0,0-2.21-6.55,17,17,0,0,0-5.8-4.19,53.59,53.59,0,0,0-8.16-2.91q-4.58-1.26-9.39-2.81a67.72,67.72,0,0,1-9.39-3.78,29.7,29.7,0,0,1-8.17-5.92,27.67,27.67,0,0,1-5.79-9.15,36.22,36.22,0,0,1-2.21-13.53A32.09,32.09,0,0,1,515,90.89a32.74,32.74,0,0,1,7.65-11A37.69,37.69,0,0,1,535,72.23a45.73,45.73,0,0,1,16.81-2.88,63.23,63.23,0,0,1,10.29.83,53.85,53.85,0,0,1,9.51,2.45,52.88,52.88,0,0,1,8.4,3.86,38.67,38.67,0,0,1,7,5.09Z"/><path class="cls-1" d="M720.44,70.62v115H693.61V137h-46.7v48.6H620.08V70.62h26.83v48.05h46.7v-48Z"/><path class="cls-1" d="M785.29,185.57H758.47V70.62h26.82Z"/><path class="cls-1" d="M923.68,70.62v115H909.79a12.07,12.07,0,0,1-5.17-1,12.61,12.61,0,0,1-4.14-3.43l-54.2-68.56q.32,3.07.43,6t.12,5.4v61.62H823.32V70.62h14a23.79,23.79,0,0,1,2.92.15,7.57,7.57,0,0,1,2.13.6,7.08,7.08,0,0,1,1.82,1.22,21.92,21.92,0,0,1,2,2.13l54.68,69c-.27-2.21-.45-4.36-.56-6.43s-.15-4-.15-5.88V70.62Z"/><path class="cls-1" d="M988.53,91.13V118h36.13v19.72H988.53v27.38h47.18v20.51h-74V70.62h74V91.13Z"/></svg>