<svg id="Layer_1" data-name="Layer 1" xmlns="http://www.w3.org/2000/svg" viewBox="0 0 1080 704.93"><defs><style>.cls-1{fill:#231f20;}</style></defs><path class="cls-1" d="M244.93,213a105,105,0,0,1-4.23,30.74A64.72,64.72,0,0,1,228,267.44a57.13,57.13,0,0,1-21.39,15.37q-12.88,5.47-30.33,5.47a143.11,143.11,0,0,1-15.57-.83,131.41,131.41,0,0,1-16-2.77l2.5-27.27a8.82,8.82,0,0,1,2.9-5.82c1.67-1.47,4-2.21,7.07-2.21a28.38,28.38,0,0,1,5.81.75,39,39,0,0,0,8.31.77A34.25,34.25,0,0,0,183.1,249a18.46,18.46,0,0,0,8.38-6.23,30.16,30.16,0,0,0,5-11.43,77.39,77.39,0,0,0,1.66-17.44V84.32h46.81Z"/><path class="cls-1" d="M399.45,249.1A43,43,0,0,0,416.28,246a34,34,0,0,0,12.53-8.93,39.45,39.45,0,0,0,7.82-14.19,62,62,0,0,0,2.7-19V84.32h46.81v119.5a93.39,93.39,0,0,1-6,34.06,76.5,76.5,0,0,1-17.25,26.73,77.79,77.79,0,0,1-27.27,17.44q-16.07,6.24-36.15,6.23t-36.27-6.23a77.75,77.75,0,0,1-27.28-17.44,75.61,75.61,0,0,1-17.17-26.73,94.23,94.23,0,0,1-6-34.06V84.32h46.81V203.68a62,62,0,0,0,2.7,19A40,40,0,0,0,370.1,237a33.57,33.57,0,0,0,12.53,9A43,43,0,0,0,399.45,249.1Z"/><path class="cls-1" d="M732.06,84.32V286.07H707.69a21.24,21.24,0,0,1-9.07-1.73,22.24,22.24,0,0,1-7.27-6L596.22,158q.56,5.4.76,10.45t.21,9.48V286.07H555.93V84.32h24.64a38.89,38.89,0,0,1,5.13.28,13.09,13.09,0,0,1,3.73,1,12.7,12.7,0,0,1,3.19,2.15,36.31,36.31,0,0,1,3.46,3.74l96,121.16q-.69-5.82-1-11.29c-.18-3.64-.28-7.08-.28-10.31V84.32Z"/><path class="cls-1" d="M851.42,120.32V167.4h63.42V202H851.42v48h82.8v36H804.34V84.32H934.22v36Z"/><path class="cls-1" d="M192.93,457.63a17.55,17.55,0,0,1-4.36,5,9.75,9.75,0,0,1-5.89,1.66,14.36,14.36,0,0,1-6.85-2q-3.68-2-8.31-4.5a69.08,69.08,0,0,0-10.59-4.5,42.37,42.37,0,0,0-13.57-2q-13.16,0-19.6,5.61T117.33,472a14,14,0,0,0,3.87,10.11,33.49,33.49,0,0,0,10.18,6.93,109.57,109.57,0,0,0,14.4,5.32q8.1,2.43,16.55,5.4a148.58,148.58,0,0,1,16.55,7A55.12,55.12,0,0,1,193.28,517a47.61,47.61,0,0,1,10.17,15.16q3.88,8.92,3.88,21.53a69.94,69.94,0,0,1-4.85,26.17,61.09,61.09,0,0,1-14,21.25,65.34,65.34,0,0,1-22.71,14.27q-13.5,5.19-30.67,5.19a98.51,98.51,0,0,1-19.18-1.94A113.91,113.91,0,0,1,97,613.2a109.25,109.25,0,0,1-17.17-8.37,72.69,72.69,0,0,1-14-10.8l13.84-21.88A13.87,13.87,0,0,1,84,568.2a11.42,11.42,0,0,1,5.89-1.59,15.81,15.81,0,0,1,8.38,2.63q4.21,2.63,9.55,5.81a76.54,76.54,0,0,0,12.26,5.82,45.77,45.77,0,0,0,16.33,2.63q12.75,0,19.81-5.61t7.06-17.79q0-7.07-3.88-11.49a29.86,29.86,0,0,0-10.18-7.34,94.05,94.05,0,0,0-14.33-5.13q-8-2.21-16.48-4.91A120.42,120.42,0,0,1,102,524.58,52,52,0,0,1,87.62,514.2a48.58,48.58,0,0,1-10.17-16.07q-3.89-9.61-3.88-23.74a56.3,56.3,0,0,1,4.57-22.16A57.18,57.18,0,0,1,91.57,433a66,66,0,0,1,21.74-13.51q12.89-5.06,29.49-5.05a110.46,110.46,0,0,1,18.07,1.45,96,96,0,0,1,16.69,4.29A92.51,92.51,0,0,1,192.31,427a68,68,0,0,1,12.25,8.93Z"/><path class="cls-1" d="M444.25,416.65V618.4H397.17V533.1h-82v85.3H268.12V416.65H315.2V501h82V416.65Z"/><path class="cls-1" d="M563.61,618.4H516.53V416.65h47.08Z"/><path class="cls-1" d="M812,416.65V618.4H787.65a21.11,21.11,0,0,1-9.07-1.74,22.22,22.22,0,0,1-7.27-6L676.18,490.31c.37,3.6.63,7.09.76,10.45s.21,6.54.21,9.49V618.4H635.89V416.65h24.65a40.63,40.63,0,0,1,5.12.27,13.25,13.25,0,0,1,3.74,1,12.22,12.22,0,0,1,3.18,2.15,35.29,35.29,0,0,1,3.46,3.74L772,545q-.69-5.82-1-11.29c-.18-3.65-.27-7.08-.27-10.31V416.65Z"/><path class="cls-1" d="M931.38,452.65v47.08H994.8v34.61H931.38v48h82.8v36H884.3V416.65h129.88v36Z"/></svg>